<svg width="22" height="15" viewBox="0 0 22 15" fill="none" xmlns="http://www.w3.org/2000/svg">
<path d="M11.002 11.8333C12.2257 11.8333 13.2652 11.4118 14.1205 10.5689C14.9757 9.72589 15.4034 8.70228 15.4034 7.49805C15.4034 6.2938 14.9751 5.27084 14.1185 4.42917C13.2619 3.58751 12.2217 3.16667 10.998 3.16667C9.7743 3.16667 8.73481 3.58816 7.87953 4.43113C7.02426 5.27411 6.59662 6.29772 6.59662 7.50195C6.59662 8.7062 7.02492 9.72916 7.88151 10.5708C8.73812 11.4125 9.77828 11.8333 11.002 11.8333ZM10.996 10.2667C10.214 10.2667 9.55056 9.99731 9.00578 9.45857C8.46099 8.91986 8.1886 8.26569 8.1886 7.49608C8.1886 6.72647 8.46232 6.07362 9.00976 5.5375C9.55719 5.00138 10.2219 4.73333 11.004 4.73333C11.786 4.73333 12.4494 5.00269 12.9942 5.54142C13.539 6.08014 13.8114 6.73431 13.8114 7.50393C13.8114 8.27353 13.5377 8.92638 12.9902 9.4625C12.4428 9.99862 11.7781 10.2667 10.996 10.2667ZM11 15C8.65718 15 6.52041 14.3792 4.58969 13.1375C2.65898 11.8958 1.17788 10.244 0.146404 8.18205C0.09397 8.09957 0.0564565 7.99764 0.0338638 7.87628C0.0112879 7.75489 0 7.62947 0 7.5C0 7.37053 0.0112879 7.24511 0.0338638 7.12372C0.0564565 7.00236 0.09397 6.90043 0.146404 6.81795C1.1779 4.75598 2.65899 3.10417 4.58969 1.8625C6.52041 0.620834 8.65718 0 11 0C13.3428 0 15.4796 0.620834 17.4103 1.8625C19.341 3.10417 20.8221 4.75598 21.8536 6.81795C21.906 6.90043 21.9435 7.00236 21.9661 7.12372C21.9887 7.24511 22 7.37053 22 7.5C22 7.62947 21.9887 7.75489 21.9661 7.87628C21.9435 7.99764 21.906 8.09957 21.8536 8.18205C20.8221 10.244 19.341 11.8958 17.4103 13.1375C15.4796 14.3792 13.3428 15 11 15Z" fill="#999999"/>
</svg>
